<?xml version="1.0" encoding="UTF-8" standalone="no"?>
<!-- Created with Inkscape (http://www.inkscape.org/) -->

<svg
   width="210mm"
   height="297mm"
   viewBox="0 0 210 297"
   version="1.1"
   id="svg1"
   inkscape:version="1.3 (0e150ed6c4, 2023-07-21)"
   sodipodi:docname="logo.svg"
   xmlns:inkscape="http://www.inkscape.org/namespaces/inkscape"
   xmlns:sodipodi="http://sodipodi.sourceforge.net/DTD/sodipodi-0.dtd"
   xmlns="http://www.w3.org/2000/svg"
   xmlns:svg="http://www.w3.org/2000/svg">
  <sodipodi:namedview
     id="namedview1"
     pagecolor="#ffffff"
     bordercolor="#000000"
     borderopacity="0.25"
     inkscape:showpageshadow="2"
     inkscape:pageopacity="0.0"
     inkscape:pagecheckerboard="0"
     inkscape:deskcolor="#d1d1d1"
     inkscape:document-units="mm"
     inkscape:zoom="1.0242632"
     inkscape:cx="365.62867"
     inkscape:cy="567.72516"
     inkscape:window-width="1920"
     inkscape:window-height="1009"
     inkscape:window-x="-8"
     inkscape:window-y="-8"
     inkscape:window-maximized="1"
     inkscape:current-layer="layer1" />
  <defs
     id="defs1" />
  <g
     inkscape:label="Layer 1"
     inkscape:groupmode="layer"
     id="layer1">
    <rect
       style="fill:#ffcc00;stroke:#ffffff;stroke-width:1;stroke-linecap:round;stroke-linejoin:round;stroke-miterlimit:8.4"
       id="rect1"
       width="92.059036"
       height="92.059036"
       x="50.778599"
       y="96.442802"
       ry="10.222475" />
    <path
       d="m 74.846291,135.15211 a 21.961857,21.961857 0 1 1 37.239979,15.77587 c -0.74304,0.71799 -1.31397,1.46422 -1.65812,2.26577 l -2.78914,6.47512 a 1.8301547,1.8301547 0 0 1 -1.68009,1.10536 1.8302009,1.8302009 0 0 1 0,3.6604 1.8301547,1.8301547 0 0 1 0,3.66026 l -0.81996,1.63618 a 3.6603094,3.6603094 0 0 1 -3.27231,2.02409 H 91.749589 a 3.6603094,3.6603094 0 0 1 -3.27231,-2.02409 l -0.819955,-1.63618 a 1.8301547,1.8301547 0 0 1 0,-3.66026 1.8302009,1.8302009 0 0 1 0,-3.6604 1.8301547,1.8301547 0 0 1 -1.683739,-1.10536 l -2.785496,-6.47871 a 7.3206189,7.3206189 0 0 0 -1.658117,-2.26218 21.88865,21.88865 0 0 1 -6.683722,-15.77587 m 21.961857,-18.3016 a 18.301547,18.301547 0 0 0 -12.734226,31.44937 c 0.962725,0.92967 1.881401,2.0645 2.47438,3.44445 l 2.316971,5.36963 h 15.893078 l 2.3133,-5.36963 c 0.59293,-1.38065 1.51171,-2.51464 2.47437,-3.44445 A 18.301547,18.301547 0 0 0 96.808107,116.85051"
       id="path1"
       style="fill:#ffffff;fill-opacity:1;stroke-width:3.6603" />
  </g>
</svg>
